<svg width="241" height="35" viewBox="0 0 241 35" fill="none" xmlns="http://www.w3.org/2000/svg">
<path d="M32 0H3C1.34315 0 0 1.34315 0 3V32C0 33.6569 1.34315 35 3 35H32C33.6569 35 35 33.6569 35 32V3C35 1.34315 33.6569 0 32 0Z" fill="#0788FF"/>
<path d="M18.9419 31.0225C21.6684 31.0225 23.8395 30.2776 25.4552 28.7877C27.0456 27.2978 27.8408 25.2144 27.8408 22.5377V20.0377H22.8423V22.5377C22.8423 23.7245 22.5141 24.6589 21.8577 25.3407C21.2014 25.9973 20.2799 26.3255 19.0934 26.3255C17.9826 26.3255 17.1243 25.9973 16.5184 25.3407C15.8873 24.6841 15.5717 23.7498 15.5717 22.5377V8.52251L21.7067 18.8634L16.934 3.97705H7.5437V8.52251H10.5732V22.5377C10.5732 25.2902 11.3179 27.3988 12.8074 28.8634C14.2968 30.3028 16.3417 31.0225 18.9419 31.0225Z" fill="white"/>
<path d="M228.216 30.4H220.183L211.66 4H219.052L224.181 22.1783L229.348 4H236.74L228.216 30.4Z" fill="white"/>
<path d="M200.302 20.1794V24.064H210.523V30.4H193.551V4H210.334V10.2983H200.302V13.9566H209.391V20.1794H200.302Z" fill="white"/>
<path d="M166.849 4H177.598C181.256 4 184.273 5.28229 186.725 7.80914C189.176 10.336 190.421 13.4663 190.421 17.2C190.421 20.9337 189.176 24.1017 186.725 26.6286C184.273 29.1554 181.256 30.4 177.598 30.4H166.849V4ZM173.789 23.8754H177.598C179.446 23.8754 180.917 23.272 182.086 22.0651C183.255 20.8206 183.821 19.1989 183.821 17.2C183.821 15.2011 183.255 13.5794 182.086 12.3726C180.917 11.128 179.446 10.5246 177.598 10.5246H173.789V23.8754Z" fill="white"/>
<path d="M144.601 4H164.401V10.5246H157.876V30.4H151.125V10.5246H144.601V4Z" fill="white"/>
<path d="M135.396 30.4V4H142.147V30.4H135.396Z" fill="white"/>
<path d="M129.378 16.7474C131.604 18.0674 132.697 20.0286 132.697 22.6686C132.697 25.0069 131.905 26.8926 130.284 28.288C128.662 29.6834 126.512 30.4 123.834 30.4H112.709V4H123.118C128.398 4 131.83 6.86629 131.83 11.5051C131.83 13.7303 131 15.4651 129.378 16.7474ZM122.929 10.0343H119.46V14.1829H122.929C124.136 14.1829 125.079 13.4286 125.079 12.1086C125.079 10.864 124.174 10.0343 122.929 10.0343ZM119.46 24.3657H123.646C125.004 24.3657 125.946 23.4606 125.946 22.1406C125.946 20.7829 125.004 19.9154 123.646 19.9154H119.46V24.3657Z" fill="white"/>
<path d="M106.691 16.7474C108.916 18.0674 110.01 20.0286 110.01 22.6686C110.01 25.0069 109.218 26.8926 107.596 28.288C105.974 29.6834 103.825 30.4 101.147 30.4H90.0212V4H100.43C105.71 4 109.142 6.86629 109.142 11.5051C109.142 13.7303 108.313 15.4651 106.691 16.7474ZM100.242 10.0343H96.7721V14.1829H100.242C101.449 14.1829 102.392 13.4286 102.392 12.1086C102.392 10.864 101.486 10.0343 100.242 10.0343ZM96.7721 24.3657H100.958C102.316 24.3657 103.259 23.4606 103.259 22.1406C103.259 20.7829 102.316 19.9154 100.958 19.9154H96.7721V24.3657Z" fill="white"/>
<path d="M88.1013 30.4H80.8224L79.691 26.5909H70.9036L69.7721 30.4H62.4556L71.1676 4H79.3893L88.1013 30.4ZM75.2784 11.8069L72.6384 20.7829H77.9561L75.2784 11.8069Z" fill="white"/>
<path d="M62.0069 30.4H54.7657L50.1646 21.8766H47.7509V30.4H41V4H51.56C54.2377 4 56.5006 4.86743 58.3109 6.60229C60.1589 8.29943 61.064 10.4869 61.064 13.1269C61.064 16.2949 59.3291 19.0857 56.576 20.632L62.0069 30.4ZM51.4846 10.2229H47.7509V16.144H51.4846C53.144 16.1817 54.3131 14.9749 54.3131 13.2023C54.3131 11.4297 53.144 10.2229 51.4846 10.2229Z" fill="white"/>
</svg>
